<?xml version="1.0" encoding="utf-8"?>
<!-- Generator: Adobe Illustrator 18.0.0, SVG Export Plug-In . SVG Version: 6.00 Build 0)  -->
<!DOCTYPE svg PUBLIC "-//W3C//DTD SVG 1.1//EN" "http://www.w3.org/Graphics/SVG/1.1/DTD/svg11.dtd">
		<svg version="1.1" id="Layer_1" xmlns="http://www.w3.org/2000/svg" xmlns:xlink="http://www.w3.org/1999/xlink" x="0px" y="0px"
			 viewBox="0 0 1145 1925.9" enable-background="new 0 0 1145 1925.9" xml:space="preserve">
			 <defs>
			     <link href="../styles/svg.css" type="text/css" rel="stylesheet" 
			           xmlns="http://www.w3.org/1999/xhtml"/>
			   </defs>
		<g>
			<g>
				<path d="M575,1925.9c0.1-1,0-2.1,0.3-3.1c3.6-10.8,4.4-21.4-1.2-31.9c-1.1-2.1-0.6-5.1-0.7-7.7c-0.6-10.2-0.8-20.4-1.9-30.5
					c-1.1-10.5-2.3-20.8,2.7-30.7c1.3-2.6,1.3-5.1-1-7.1c-2.7-2.4-2.6-5.5-2.4-8.7c0.5-6.5,0.8-13,1.1-19.6
					c0.6-14.1,1.8-28.2,1.6-42.3c-0.2-11.7-1-23.6-3.2-35c-1.9-10-3.7-20-4-30.2c-0.6-24.1-1.6-48.1-1.9-72.2
					c-0.3-24.3,0.5-48.6-0.1-72.9c-0.4-15.9-2.4-31.8-3.7-47.7c-0.2-2.9-0.7-5.8-0.5-8.6c2.4-33.3-2.4-66.3-2.8-99.5
					c0-4.4-0.8-8.9-1.7-13.2c-4.3-19.4-4.5-38.9-2-58.4c1.2-8.8,1.9-17.6-0.2-26.4c-1-4.2-0.8-8.9-0.5-13.3c1.1-15.2,1-30.3-0.9-45.4
					c-0.8-6.5-0.8-13.1-0.5-19.6c0.4-12.3,0.4-24.6-2.4-36.7c-0.2-1-0.4-2.1-0.3-3.1c0.8-23.3-3.8-46.2-4.9-69.3
					c-0.5-11.8-1.7-23.3,0.9-35c0.9-4-0.4-8.8-1.7-13c-2-6.4-2.7-12.7-0.8-19.2c2.9-10.1,0.7-20.3,1-30.4c0.4-14.6,0.5-29.2,0.9-43.9
					c0.1-2.3,0.5-4.9,1.6-6.8c3.6-6.4,3.2-13.1,1.9-19.9c-1.1-6.3-1.2-12.4,0.6-18.6c1.4-4.8,1-9.6,0.4-14.6c-0.8-6.9,0.5-14,0.6-21
					c0.1-5.2-0.1-10.3-0.3-15.5c-0.1-4.7-0.5-9.3-0.6-14c0-1.8,0.7-3.6,0.6-5.4c-1-17.2,1.7-34.3,0.1-51.4c-0.3-3.3,0-6.7,0.3-10.1
					c0.2-3.4,0.6-6.8,1.2-10.1c0.5-3.3,0.7-6.9,2.2-9.8c2.3-4.7,2.3-9-0.1-13.4c-0.5-0.9-0.8-1.9-1.2-2.9c-2.2-6.4-1.9-7.4,4-10.6
					c0.9-0.5,1.8-0.9,2.6-1.3c0.3-0.7,0.8-1.2,0.7-1.6c-2.1-14.5,1.9-28.5,3.4-42.8c1.5-14.5,2.9-29,4.4-43.2
					c-11.6-7.2-23.2-14.4-35.5-22.1c2.6,4.4,5,8.5,7.5,12.6c-0.4,0.3-0.7,0.6-1.1,0.9c-4.6-5.7-9.2-11.4-14-17.3
					c-2.1,6.4-1.8,7.7,3.2,19.2c2.7,6.1,5.4,12.3,7.1,18.9c-3-3.2-6-6.4-8.9-9.6c-0.4,0.2-0.9,0.3-1.3,0.5c0.8,4,1.7,8.1,2.9,14.1
					c-6.2-4.9-11.3-8.8-16.3-12.7c-0.5,0.4-1,0.8-1.5,1.2c2.4,6.2,4.7,12.4,7.1,18.6c-0.5,0.3-0.9,0.6-1.4,0.9
					c-4.5-5.6-9-11.3-13.5-16.9c-0.2,7,4.4,12.3,5.2,19.2c-4.6-5.3-9.3-10.7-13.9-16c-0.4,0.2-0.9,0.4-1.3,0.6
					c3,7.7,5.9,15.5,8.9,23.2c-0.3,0.2-0.7,0.3-1,0.5c-6-7.1-12.1-14.2-18.1-21.2c-0.5,0.3-1,0.5-1.5,0.8c3.9,11.4,7.9,22.9,11.8,34.3
					c-0.4,0.2-0.8,0.4-1.2,0.7c-7.7-12-15.4-24-23.1-36c-0.5,0.3-1.1,0.5-1.6,0.8c5.8,17.5,11.6,35,17.3,52.5
					c-0.3,0.2-0.6,0.4-0.9,0.6c-3.3-4-6.7-8-10.6-12.7c-2.4,6.4,0.2,12.2,0,18.9c-2.5-3.3-4.6-6-6.7-8.7c-0.5,0.1-1,0.3-1.5,0.4
					c0.6,6.1,1.2,12.1,1.8,18.2c-0.3,0.2-0.5,0.4-0.8,0.6c-3.3-5.5-6.5-11-9.8-16.5c-0.6,0.2-1.2,0.5-1.8,0.7
					c2.2,8.9,4.4,17.8,6.6,26.6c-0.3,0.1-0.6,0.2-0.9,0.4c-2.4-3.3-4.7-6.6-7.1-9.8c-0.4,0.1-0.9,0.2-1.3,0.4c0.4,5.8,0.7,11.5,1.2,19
					c-4.2-4.7-7.3-8.3-11.7-13.2c0.4,7.5,0.7,13.1,1,18.8c-0.4,0.2-0.8,0.4-1.2,0.6c-4.9-9.7-9.8-19.5-14.8-29.2
					c-0.6,0.2-1.1,0.4-1.7,0.6c2.8,11.2,5.6,22.4,8.4,33.7c-0.3,0.1-0.7,0.3-1,0.4c-1.9-2.9-3.8-5.9-6.7-10.5
					c-0.4,11.6,2.1,21.1,1.5,31.2c-4.1-10.6-8.3-21.2-12.4-31.8c-0.4,0.1-0.8,0.2-1.2,0.3c1.5,11.2,3,22.3,4.5,33.5
					c-0.4,0.2-0.8,0.4-1.2,0.5c-2.3-3.8-4.7-7.5-7-11.3c-0.3,0.1-0.6,0.2-0.9,0.4c0.8,4.5,1.6,9,2.4,13.5c-0.3,0.1-0.6,0.1-0.9,0.2
					c-1.8-4.5-3.6-8.9-5.3-13.4c-0.4,0-0.8,0.1-1.2,0.1c0,8.4,0,16.8,0,25.1c-0.3,0-0.7,0-1,0c-0.5-4.1-1-8.1-1.5-12.2
					c-0.7,0-1.3,0.1-2,0.1c0,10.7,0,21.4,0,32c-0.6,0.1-1.1,0.1-1.7,0.2c-2.8-10.7-5.5-21.5-8.3-32.2c-0.5,0.1-0.9,0.1-1.4,0.2
					c0.8,13.5,1.6,27.1,2.4,40.6c-0.2,0.1-0.4,0.1-0.6,0.2c-1.7-6.8-3.5-13.6-5.6-21.9c-2.6,5.1-2.4,9.3-2.9,13.4
					c-0.6,4.4-1.2,8.7-2.6,13.1c0-8.4,0-16.8,0-25.3c-0.5-0.1-1-0.1-1.5-0.2c-2.8,16.7-5.5,33.4-8.3,50.1c-0.4,0.1-0.7,0.1-1.1,0.2
					c-1.3-5.2-2.6-10.3-3.9-15.5c-0.4,0-0.7,0.1-1.1,0.1c-0.7,13.2-1.3,26.4-2,41.1c-1.5-3.3-2.3-5.3-3.2-7.3
					c-0.4,0.2-1.1,0.4-1.1,0.6c-0.8,5.7-1.5,11.4-2.6,17.1c-0.6-6.4-1.3-12.7-1.9-19.1c-0.4,0-0.9,0-1.3,0c-0.9,8.1-1.8,16.2-2.7,24.3
					c-0.3,0-0.5,0-0.8,0c0-10.3,0-20.6,0-30.9c-0.5-0.1-0.9-0.1-1.4-0.2c-2.4,11.9-4.8,23.7-7.1,35.6c-0.4,0-0.8-0.1-1.2-0.1
					c0.6-5.6,1.1-11.1,1.7-16.7c0.6-5.9,1.2-11.7,1.8-17.6c-0.5-0.1-1-0.3-1.5-0.4c-3.3,8.1-6.6,16.1-10,24.2
					c0.8-13.1,5.7-25.3,7-38.4c-2.4,5-4.8,10-7.2,15.1c-0.3-0.1-0.6-0.1-0.8-0.2c0.4-2.4,0.8-4.7,1.3-8.2c-1.8,2.2-2.9,3.5-4,4.8
					c-0.3-0.1-0.6-0.3-0.8-0.4c3.7-10.8,7.3-21.6,11-32.3c-0.4-0.2-0.8-0.3-1.2-0.5c-4.3,9.8-8.7,19.6-13,29.3
					c-0.4-0.1-0.8-0.2-1.1-0.3c2.5-9.7,5.1-19.4,7.6-29.1c-0.4-0.2-0.7-0.3-1.1-0.5c-2.5,3.7-4.9,7.4-7.4,11.2
					c-0.4-0.2-0.9-0.4-1.3-0.6c9.7-28,19.4-56,29-84c-0.6-0.3-1.1-0.6-1.7-0.9c-8.4,14-16.8,28.1-25.2,42.1
					c9.3-22.6,20.6-44.2,28.7-67.3c-4.4,5.7-8.8,11.3-13.2,17l0.2,0.1c2.3-4.6,4.4-9.3,6.9-13.8c3.9-7,8-13.8,12-20.7
					c-0.5-0.4-0.9-0.7-1.4-1.1c-25.8,20.2-51.7,40.4-77.5,60.7c0.8-5.5,5.2-8.3,8.3-12c3.3-4,7-7.8,10.5-11.7c3.3-3.7,6.7-7.3,10-11
					c3.4-3.7,6.8-7.5,10.1-11.3c-0.4-0.4-0.7-0.9-1.1-1.3c-14.9,9.2-29.8,18.4-44.8,27.6c-0.3-0.4-0.5-0.7-0.8-1.1
					c13.6-12,27.3-24,40.9-36c-0.3-0.5-0.6-1-0.8-1.4c-6.8,2.8-12.7,7.7-20.1,9.5c16.8-12.1,33.7-24.3,50.5-36.4
					c-0.2-0.5-0.5-0.9-0.7-1.4c-7.2,2.8-14,6.8-20.9,10.3c-7.2,3.7-14.4,7.4-21.6,11.1c-7.2,3.7-14.4,7.3-22.3,10
					c11-7.4,21.9-14.9,32.9-22.3c-0.2-0.5-0.5-0.9-0.7-1.4c-10.1,4.1-19.3,10.3-30.1,13.1c24.2-15.3,48.4-30.6,72.7-45.9
					c-0.3-0.5-0.5-1-0.8-1.5c-24.4,12.2-48.4,25.3-72.8,37.5c-0.2-0.4-0.5-0.9-0.7-1.3c13.1-7.9,26.1-15.9,39.2-23.8
					c-0.2-0.5-0.4-0.9-0.6-1.4c-16.9,5-33.3,11.9-50.7,16c9.4-5.4,18.7-10.7,28.1-16.1c-0.2-0.5-0.4-1-0.5-1.4
					c-7.8,2.6-15.6,5.2-23.3,7.7c-0.2-0.4-0.3-0.7-0.5-1.1c5.6-2.7,11.3-5.4,16.9-8.1c-0.1-0.3-0.1-0.7-0.2-1
					c-1.7,0.1-3.4,0.2-5.1,0.3c-0.1-0.2-0.1-0.5-0.2-0.7c2.3-1.1,4.5-2.2,6.8-3.3c20.8-9.2,41.6-18.3,62.5-27.4
					c9.3-4,16.3-10.9,23.5-17.8c-40.5,18.6-80,39-120.9,57.6c20.2-22.3,40.4-44.6,60.6-66.9c-0.3-0.4-0.6-0.9-0.9-1.3
					c-13.4,8.1-26.7,16.2-40.1,24.3c-0.4-0.5-0.7-0.9-1.1-1.4c23.4-22.7,46.9-45.5,70.3-68.2c-0.3-0.5-0.7-1-1-1.5
					c-13.9,7.4-27.2,15.9-41.5,23.1c6.7-13.4,15.9-25.4,22.1-39.3c-12.7,12.5-25.5,25-38.2,37.5c-0.4-0.2-0.9-0.5-1.3-0.7
					c3.2-10.8,6.4-21.6,9.6-32.4c-0.5-0.2-1-0.5-1.4-0.7c-12.7,21.1-25.3,42.2-38,63.2c-0.5-0.1-1-0.3-1.4-0.4
					c0.7-8.9,1.5-17.7,2.2-26.6c-0.5-0.3-0.9-0.6-1.4-0.9c-10.3,9-20.5,18-30.8,27c-0.4-0.2-0.7-0.5-1.1-0.7c3.2-8.7,6.4-17.3,9.7-26
					c-0.4-0.2-0.8-0.5-1.2-0.7c-1.2,1.1-2.5,2-3.5,3.3c-6.9,8.6-13.9,17-20.4,25.9c-4.8,6.4-10.5,11.6-17.3,15.7
					c-5.9,3.6-11.8,7.3-18.8,9.9c3.5-5.3,7-10.7,10.5-16c-7.1,1.2-11.6,6.8-18.2,8.7c1.7-2.1,3.4-4.2,5.1-6.2
					c-14.6,4.3-26.9,13.1-41.2,18.4c8.2-10.6,16.3-21.2,24.5-31.8c-0.4-0.4-0.8-0.8-1.2-1.2c-2.4,2-4.8,4.2-7.3,6.1
					c-14.3,10.7-25,24.3-32.9,40.2c-4.1,8.1-9.1,15.8-15,23.3c1.9-11.5,3.9-23.1,5.8-34.6c-8.8,18.1-14.6,37.2-23.3,55.5
					c1.6-8,3.3-16.1,4.9-24.1c-0.5-0.1-1-0.2-1.5-0.4c-2.9,7.5-5.7,14.9-8.6,22.4c-0.4-0.1-0.9-0.2-1.3-0.2c2-13.6,4.1-27.3,6.1-40.9
					c-0.5-0.1-0.9-0.3-1.4-0.4c-9,26.6-17.9,53.1-26.9,79.7c-0.4-0.1-0.8-0.2-1.3-0.3c5.2-21,10.4-42,15.5-63
					c-0.4-0.1-0.9-0.3-1.3-0.4c-9.6,23.6-19.1,47.2-28.7,70.8c-0.5-0.2-1-0.3-1.5-0.5c4.7-14.4,9.5-28.7,14.2-43.1
					c-0.3-0.1-0.6-0.3-0.9-0.4c-0.8,1.5-1.7,3-2.4,4.6c-6.1,14.5-12,29-18.1,43.4c-1,2.3-2.5,4.3-3.8,6.4l0.2,0.1c0.8-3,1.3-6.1,2.3-9
					c4.6-13.3,9.4-26.6,14.1-40c0.8-2.4,1.6-4.8,1.1-7.7c-9.1,18.1-18.2,36.2-27.2,54.3c-0.4-0.2-0.9-0.4-1.3-0.6
					c6.5-15.4,13-30.8,19.5-46.2c-0.6-0.3-1.1-0.7-1.7-1c-5.4,7.1-10.7,14.1-16.1,21.2c-0.4-0.3-0.8-0.5-1.2-0.8
					c3-5.9,6-11.8,9.7-19.1c-4,1.5-6.7,2.5-9.3,3.5c-0.3-0.4-0.7-0.8-1-1.2c9.3-10.5,19.4-20.4,28.4-31.3c-8.6,3.2-14.9,10-23.1,14
					c2-3.6,5.1-6.3,8.1-9.1c3-2.8,6.3-5.4,9.5-8.1c-0.5-0.6-0.9-1.2-1.4-1.8c-2.4,1.2-4.7,2.5-7.1,3.7c-0.3-0.2-0.5-0.5-0.8-0.7
					c5.2-4.8,10.5-9.7,16.7-15.4c-3.3,0.4-5.1,0.6-7,0.8c-0.1-0.3-0.1-0.6-0.2-0.9c8.7-5.2,17.4-10.4,26.1-15.6
					c-0.2-0.4-0.4-0.9-0.6-1.3c-9,3.7-18,7.4-27,11c10.8-8.2,23.2-14.1,34-22.7c-11.4,4.7-22.9,9.4-34.3,14c-0.2-0.4-0.4-0.9-0.6-1.3
					c14.5-8,29.1-16,43.6-24.1c-0.2-0.5-0.4-1-0.7-1.5c-11.8,3.9-22.9,9.8-35,13.2c2.1-1.3,4.3-2.7,6.4-3.9c8.9-5,17.9-9.8,26.6-15.2
					c3.1-1.9,9.3-1.4,8-8c-0.1-0.4,1.6-1.2,2.4-1.8c29.3-18.8,58.9-37.1,89.8-53.2c20.5-10.7,42-19,64.4-24.4
					c41.2-9.9,82.5-18.9,123.9-27.8c14.1-3.1,28.6-3.1,43-2.3c14.6,0.8,29.3,1.7,43.8,2.9c7.2,0.6,14.4,2,22,3.1
					c6.2-9,12.3-18,18.4-27c-0.3-0.4-0.6-0.8-0.9-1.1c-8.2,4.7-16.3,9.4-24.5,14.1c-0.4-0.4-0.7-0.9-1.1-1.3
					c11.4-12.6,22.8-25.2,34.2-37.8c-0.3-0.4-0.5-0.9-0.8-1.3c-13.7,4.5-27.3,9-41,13.5c-0.3-0.5-0.5-0.9-0.8-1.4
					c15.1-10.9,30.2-21.8,45.2-32.6c-3.1-6.9-5.6-8.2-10.6-4.9c-3.9,2.5-7.1,6.1-10.4,9.4c-2,1.9-3.6,4.2-6.7,5.9
					c0.4-13.4,0.8-26.7,1.2-40.1c-0.4-0.1-0.7-0.2-1.1-0.3c-0.7,1.8-1.5,3.6-2,5.5c-2.8,10.9-6.7,21.4-12.7,31.1
					c-3.8,6.2-7.1,12.8-10.1,19.5c-6,13.6-17.7,22.1-27.9,32.2c5.8-9.5,11.4-19.1,17.3-28.5c2.6-4.1,3.9-8.3,3.7-13.3
					c-0.4-15.4-0.5-30.8-2-46.4c-4.1,12.6-7.8,25.3-12.4,37.6c-4.7,12.6-10.3,24.9-15.4,37.3c-0.5-0.2-1-0.3-1.5-0.5
					c3.2-22.3,6.4-44.6,9.5-66.9c-0.5-0.1-1-0.3-1.5-0.4c-8.9,26.6-17.9,53.3-26.8,79.9c-0.5-0.1-1.1-0.2-1.6-0.2
					c0.9-16.9,4.1-33.6,4.2-50.7c-0.6,1.4-1.2,2.9-1.8,4.3c-0.4,0.1-0.9,0.1-1.3,0.2c-2.3-12.8-4.6-25.5-6.9-38.3
					c-0.5-0.1-1-0.1-1.4-0.2c-3.7,10.4-7.4,20.8-11.2,31.2c-0.4-0.1-0.8-0.2-1.3-0.3c0.6-3.6,1-7.1,1.7-10.7c4.2-21,8.4-42,12.9-63
					c1.4-6.6,0.4-12.9-2.1-19.3c-5,28.7-10,57.5-15.1,86.2c-0.4,0-0.8-0.1-1.3-0.1c1.2-28.5,2.5-57.1,3.7-85.6c-0.5-0.1-1-0.1-1.5-0.2
					c-4.9,22.8-9.9,45.7-14.8,68.5c-0.3,0-0.5-0.1-0.8-0.1c2.5-25.7,4.9-51.4,7.4-77.1c-0.5-0.2-1.1-0.5-1.6-0.7
					c-14.1,20.1-28.2,40.2-42.4,60.3c-0.6-0.3-1.2-0.7-1.8-1c3.7-7,7.4-14,11-21c-0.5-0.3-0.9-0.6-1.4-1c-6.4,8.5-12.8,17.1-19.1,25.6
					c4.6-11.9,11.7-22.6,17-34.5c-2.1,1.1-4.1,2.3-6.2,3.4c-0.3-0.3-0.6-0.6-0.9-0.8c9.8-10.5,19.5-21,29.3-31.5
					c-0.3-0.4-0.6-0.8-0.9-1.2c-20,9.2-40,18.5-59.9,27.7c-0.2-0.4-0.5-0.8-0.7-1.2c13.5-8.5,26.9-16.9,40.4-25.4
					c-0.3-0.6-0.5-1.2-0.8-1.7c-20.4,6.3-40,14.8-60.7,20.7c14.9-7.4,29.7-14.9,44.6-22.3c-0.2-0.6-0.4-1.1-0.6-1.7
					c-18.2,5.7-36.4,11.5-54.6,17.2c-0.2-0.4-0.3-0.7-0.5-1.1c16.9-7.4,33.7-14.9,50.6-22.3c-0.2-0.5-0.4-1-0.6-1.5
					c-20.4,6.9-40.7,13.8-61.1,20.7c-0.2-0.5-0.4-1-0.5-1.5c20.1-8.6,40.1-17.1,60.2-25.7c-0.2-0.5-0.3-1-0.5-1.6
					c-23.3,6.8-46.5,13.6-69.8,20.4c-0.1-0.4-0.3-0.8-0.4-1.2c17.7-6.4,35.4-12.8,53-19.2c-0.1-0.5-0.2-1-0.3-1.5
					c-13.2,1.4-26.1,4.6-39.2,6.8c-13.1,2.2-26.2,4.8-39.6,6.1c19.8-5.4,39.5-10.8,59.3-16.2c-0.1-0.4-0.2-0.9-0.3-1.3
					c-17.4,3.2-34.8,6.4-52.2,9.6c-0.1-0.4-0.2-0.8-0.3-1.2c14.9-4.4,29.9-8.9,44.8-13.3c-0.1-0.6-0.3-1.2-0.4-1.8
					c-19.1,3.4-38.1,6.8-57.2,10.2c-0.1-0.5-0.2-0.9-0.3-1.4c14.4-3.9,28.9-7.9,43.3-11.8c-0.1-0.5-0.2-1-0.3-1.5
					c-19.6,3.7-39.1,7.5-58.7,11.2c-0.1-0.4-0.2-0.7-0.2-1.1c14.4-4.4,28.8-8.8,43.3-13.3c-0.1-0.4-0.2-0.9-0.3-1.3
					c-26.1,5.8-52.2,11.6-78.2,17.5c-0.1-0.5-0.2-0.9-0.4-1.4c22.5-6.4,45.1-12.8,67.6-19.3c-0.1-0.4-0.2-0.8-0.3-1.2
					c-33.5,4.6-67,9.2-100.6,13.8c30.8-11.3,63.4-12.5,95.2-18.6c-11,0-22,0-33,0c20.6-3.4,41.3-6,62.1-4.7c7,0.4,13.8,2.7,20.7,4.2
					c12.2,2.8,24.5,5.4,36.6,8.5c9.6,2.5,19,5.6,28.5,8.5c2.7,0.8,5.3,1.6,8.5,1.1c-3-1.8-6-3.7-9-5.5c16.2-0.6,32,2.7,48.3,2.3
					c-2.9-1.3-5.8-2.7-8.6-4c0.1-0.3,0.2-0.7,0.3-1c7.4,0,14.9,0,22.3,0c0.1-0.4,0.2-0.8,0.4-1.2c-2.8-1.4-5.7-2.7-9.9-4.8
					c10.5,0,19.7,0,28.8,0c0.2-0.4,0.3-0.8,0.5-1.2c-4.6-3.1-9.2-6.1-13.8-9.2c0.2-0.4,0.3-0.8,0.5-1.1c7.5,2.5,14.9,4.9,22.4,7.4
					c0.2-0.4,0.5-0.8,0.7-1.2c-3.1-2.1-6.1-4.2-9.2-6.3c-3.2-2.1-6.3-4.2-9.5-6.3c0.2-0.5,0.5-0.9,0.7-1.4c8.4,3.8,16.8,7.7,25.3,11.5
					c0.3-0.4,0.7-0.7,1-1.1c-6.4-7.9-12.8-15.8-19.2-23.8c0.3-0.4,0.6-0.8,1-1.2c9.3,6.8,18.7,13.6,28,20.4c0.4-0.2,0.8-0.4,1.2-0.7
					c-3.4-7.8-6.9-15.7-10.3-23.5c0.4-0.3,0.7-0.5,1.1-0.8c6.2,7.3,12.4,14.7,18.6,22c0.4-0.3,0.8-0.5,1.3-0.8
					c-2.4-6.5-4.8-13-7.1-19.5c0.5-0.3,0.9-0.5,1.4-0.8c6.3,10.6,12.7,21.3,19,31.9c0.5-0.2,1-0.3,1.6-0.5c-1.3-12-2.7-23.9-4-35.9
					c0.3-0.1,0.6-0.3,1-0.4c3.8,9.9,7.5,19.8,11.3,29.8c-0.7-13-0.5-25.8-6.5-37.9c-10.1-20.3-25.7-36.1-41.2-52.1
					c-7.8-8.1-16.1-15.7-24.3-23.4c-24.9-23.2-54.1-35.7-88.6-35.7c-17.7,0-34.9,1.9-51.7,7.6c-2.7,0.9-5.5,1.7-8.3,2.4
					c-0.4,0.1-1-0.2-2.6-0.6c10.9-5.9,21-11.4,31.1-17c-0.3-0.6-0.5-1.2-0.8-1.8c-12.1,3.7-24.1,7.5-36.2,11.2
					c-0.1-0.3-0.2-0.6-0.4-0.9c7.3-3.9,14.5-7.7,21.8-11.6c-0.1-0.4-0.3-0.7-0.4-1.1c-3,0.5-6,0.9-8.9,1.4c-0.1-0.4-0.3-0.8-0.4-1.3
					c5.6-2.1,11.2-4.2,16.8-6.3c-0.1-0.4-0.1-0.7-0.2-1.1c-3.2,0.2-6.4,0.4-9.5,0.6c-0.1-0.4-0.2-0.7-0.3-1.1c5.7-2,11.4-4,17.1-6.1
					c0-0.4,0.1-0.8,0.1-1.1c-2.8-0.5-5.5-1-9.3-1.7c8.4-1.5,15.7-2.9,24.5-4.5c-4.4-1.2-7.3-2-10.2-2.8c0.1-0.4,0.1-0.7,0.2-1.1
					c5.7,0,11.4,0,17,0c0.1-0.5,0.2-1,0.3-1.4c-4.4-1.2-8.8-2.4-14.5-4c8.9,0,16.4,0,23.8,0c0.1-0.2,0.1-0.3,0.2-0.5
					c-3.6-1-7.3-1.9-10.9-2.9c0.1-0.3,0.1-0.7,0.2-1c7.9,0.6,15.8,1.1,24.8,1.8c-1.1-1.8-1.6-2.6-2.1-3.4c-0.5-0.7-0.9-1.5-0.5-3.1
					c9.8,6.5,19.6,13,29.3,19.6c0.5-0.4,0.9-0.9,1.4-1.3c-3.6-5.7-7.3-11.5-10.9-17.2c0.4-0.3,0.7-0.6,1.1-0.9
					c21.4,23.4,42.9,46.9,64.3,70.3c0.1-4.1-2.4-6.8-4.3-9.8c-2.1-3.3-4.4-6.5-6.5-9.8c-2.2-3.3-4.3-6.5-6.5-9.8
					c-2.2-3.3-4.4-6.5-6.6-9.8c-2.1-3.1-4.1-6.3-6.2-9.4c0.5-0.3,1-0.7,1.6-1c18,23.3,35.9,46.5,53.9,69.8c0.5-0.3,0.9-0.6,1.4-0.9
					c-13.6-23.5-28.1-46.5-40.7-70.7c21.6,30.3,43.1,60.5,64.7,90.8c0.5-0.3,1.1-0.6,1.6-0.9c-9-20.6-18-41.2-27-61.8
					c0.4-0.2,0.9-0.4,1.3-0.6c12.7,23.2,25.4,46.4,38.1,69.6c0.6-0.2,1.1-0.5,1.7-0.7c-5.8-17.7-11.6-35.5-17.5-53.2
					c0.4-0.2,0.8-0.3,1.2-0.5c8,18.4,15.9,36.8,23.9,55.2c0.6-0.2,1.2-0.3,1.7-0.5c-2.6-13.3-5.2-26.6-7.8-39.9
					c0.4-0.1,0.7-0.2,1.1-0.3c4.4,13.3,8.8,26.6,13.1,39.9c0.4-0.1,0.9-0.2,1.3-0.3c-0.7-7.9-1.3-15.9-2-23.8
					c6.8,9.9,8.3,21.7,13,32.8c1.9-1.7,3.4-3,5.4-4.7c1.3,4,2.4,7.5,3.8,12.2c1.9-3,3.2-5,5.2-8.3c2.3,8.1,4.3,15.2,6.5,23.3
					c1.8-2.6,3.1-4.4,4.4-6.2c0.6,0.5,1.1,0.8,1.2,1.1c0.2,0.4,0.4,1,0.3,1.5c-1.4,10.4,4.4,16.9,11.8,23c6.3,5.1,12,10.9,17.9,16.4
					c-4.4-3.1-8.7-6.2-13.1-9.4c-2.3-1.6-3.9-4.4-7.5-4.1c11.3,11.9,23.6,22.5,37.4,31.9c-0.3-0.8-0.6-1.7-0.9-2.5
					c3.1,2.3,6.4,4.3,9.4,6.8c3.8,3.2,7.4,6.6,11.5,10.4c1.4-2.3,2.6-4.2,4.2-6.7c-20.2-23.8-40.3-47.5-60.3-71.2c0.3-0.3,0.6-0.6,1-1
					c19.2,19.2,38.4,38.3,57.6,57.5c0.5-0.4,1-0.8,1.5-1.2c-18.8-26.8-37.7-53.5-56.5-80.3c0.4-0.4,0.9-0.7,1.3-1.1
					c14,16.3,27.3,33.1,41.2,49.4c0.5-0.4,1-0.8,1.5-1.1c-19.8-27.1-39.5-54.3-59.3-81.4c0.2-0.3,0.5-0.5,0.7-0.8
					c1.3,1.2,2.7,2.4,3.8,3.8c14.3,17,28.5,34.1,42.8,51.2c1.6,1.9,3.7,3.4,5.6,5.1c1,1.8,2,3.5,3,5.3c0.5-0.4,1-0.8,1.4-1.2
					c-1.5-1.3-3.1-2.7-4.6-4c-1.2-2.2-2.2-4.6-3.8-6.6c-11.1-14.6-22.2-29-33.3-43.5c-1.5-2-3-4.1-3.5-6.9
					c21.5,24.6,42.9,49.2,64.4,73.8c0.4-0.3,0.8-0.5,1.2-0.8c-1.4-2.3-2.8-4.6-4.4-6.8c-14.4-20.5-28.9-41-43.2-61.5
					c-1.6-2.3-2.7-4.9-4-7.4L534,139c2,1.9,4.2,3.7,6,5.8c12.5,15.5,24.9,31,37.3,46.5c1.3,1.6,2.7,3.2,5.1,4
					c-3.1-4.7-6.3-9.4-9.4-14.1c-3.4-5-6.9-9.9-10.3-14.8c-3.3-4.7-6.5-9.5-9.8-14.2c-3.4-4.9-6.9-9.9-10.3-14.8
					c-3.4-4.8-6.7-9.7-10-14.5c0.5-0.4,1-0.8,1.5-1.1c15.9,18.7,31.7,37.5,47.6,56.3c0.5-0.7,0.8-0.9,0.8-1.1c0.1-0.2,0-0.5-0.1-0.7
					c-14.9-20.8-29.8-41.6-44.7-62.3c0.3-0.4,0.5-0.7,0.7-0.8c0.1-0.1,0.4,0.1,0.6,0.3c0.6,0.5,1.1,1.1,1.6,1.7
					c17.1,21.1,34.2,42.3,51.3,63.4c0.2,0.2,0.4,0.3,1.1,0.1c-8.8-15.6-19.3-30.1-29.1-45.1c-10.1-15.3-20.3-30.4-29.9-46.3
					c1.1,1.1,2.3,2.1,3.2,3.2c8.2,10.2,16.2,20.5,24.4,30.7c1.6,1.9,3.6,3.5,5.4,5.2c1.1,1.8,2.1,3.7,3.2,5.5c0.5-0.4,1-0.7,1.4-1.1
					c-1.6-1.5-3.1-2.9-4.7-4.4c-1.2-2.2-2.1-4.5-3.5-6.6c-5.6-8.3-11.3-16.5-16.9-24.7c0,0-0.2,0.1-0.2,0.1c1.8,1.6,3.9,3.1,5.5,5
					c11.5,14.5,22.9,29,34.4,43.6c1.6,2,3.2,3.8,5.8,5.2c-0.9-1.7-1.7-3.4-2.8-5c-9.8-14.1-19.8-28.1-29.6-42.2
					c-1.4-2.1-2.4-4.5-3.5-6.7l-0.2,0.1c1.8,1.7,3.9,3.3,5.4,5.2c12,15.1,23.9,30.3,35.9,45.5c1.6,2,3.3,3.9,4.9,5.8
					c0.5-0.3,0.9-0.5,1.4-0.8c-1.1-2.2-2-4.4-3.2-6.5c-15.7-28-31.5-55.9-47.2-83.9c-1.4-2.4-2.2-5.2-3.3-7.8c0,0-0.2,0.1-0.2,0.1
					c1.6,1.9,3.6,3.6,4.9,5.7c15.4,24.3,30.7,48.7,46,73c1.5,2.4,3.2,4.7,5.4,6.7c-11.9-27.4-25.9-53.8-37.4-81.4
					c10,17.8,20.1,35.7,30.1,53.5c0.6-0.3,1.1-0.5,1.7-0.8c-6.4-14.7-12.8-29.4-19.2-44c0.5-0.2,0.9-0.4,1.4-0.7
					c6.5,12.5,13,24.9,19.4,37.4c0.5-0.2,1.1-0.5,1.6-0.7c-8.6-24.5-17.1-49-25.7-73.5c0.5-0.2,1-0.4,1.5-0.6
					c10,22.9,20,45.8,30.1,68.7c0.4-0.1,0.8-0.3,1.2-0.4c-7.2-31.7-14.4-63.5-21.6-95.2c0.4-0.1,0.9-0.2,1.3-0.4
					c7.4,25.7,14.9,51.4,22.3,77c0.4-0.1,0.8-0.2,1.2-0.3c-3.6-21.3-7.2-42.6-10.9-63.9c0.4-0.1,0.8-0.2,1.2-0.3
					c4.4,18,8.8,35.9,13.2,53.9c0.5-0.1,1-0.2,1.4-0.3c-2.7-20.9-5.3-41.8-8-62.7c0.4-0.1,0.9-0.1,1.3-0.2
					c3.6,18.8,7.1,37.7,10.7,56.5c0.5,0,1.1-0.1,1.6-0.1c0.7-13.8,1.4-27.7,2.1-41.5c0.3,0,0.6,0,1,0c0.8,14.3,1.7,28.6,2.5,42.8
					c0.4,0.1,0.9,0.1,1.3,0.2c1.7-10.2,3.3-20.3,5-30.5c0.3,0,0.7,0,1,0c0.7,15.4,1.3,30.7,2,46.1c4.9-8.2,5.1-17.7,9.4-26.3
					c0.5,8.5,1,16.9,1.6,27.1C661.3,58.1,662,35.9,676.9,20c-2.6,8.3-5.2,16.7-7.8,25c0.4,0.2,0.9,0.4,1.3,0.6c3.4-6,6.8-12,10.2-18
					c0.3,0.1,0.7,0.3,1,0.4c-3.5,11-7,22-10.5,32.9c0.4,0.2,0.8,0.4,1.2,0.5c5.8-12.7,11.6-25.4,18.1-39.5c0.3,3.1,0.5,4.5,0.7,6.8
					c2-1.7,3.6-3.1,6.7-5.6c-4.1,10.1-7.6,18.6-11.1,27.1c0.3,0.2,0.6,0.4,1,0.6c2.4-3.3,4.9-6.6,7.3-9.8c0.3,0.1,0.5,0.3,0.8,0.4
					c-2.7,8.1-5.3,16.1-8.4,25.5c5.9-2.8,7.6-7.9,12.5-11.3c-4.8,11.6-9.1,22.2-13.5,32.8c0.6,0.4,1.1,0.8,1.7,1.2
					c1.8-2.8,3.6-5.6,5.4-8.4c0.7,0.5,1.3,1,2,1.5c-0.7,1.7-1.3,3.4-2.5,6.5c3.5-2.7,6-4.6,8.5-6.5c0.3,0.2,0.7,0.3,1,0.5
					c-2.7,5.6-5.5,11.2-8.2,16.8c0.3,0.2,0.7,0.4,1,0.6c1.6-1.2,3.2-2.3,5-3.7c0.4,2.3,0.8,4.2,1.4,7.9c3.3-7.9,5.9-14,8.5-20.2
					c0.4,0.1,0.7,0.1,1.1,0.2c-1,7.6-1.9,15.2-2.9,22.8c0.5,0.1,1,0.3,1.4,0.4c10.6-21.9,21.2-43.7,31.8-65.6c0.5,0.2,0.9,0.4,1.4,0.6
					c-2,8.3-4,16.5-6,24.8c0.4,0.2,0.8,0.3,1.2,0.5c4.4-8.6,8.8-17.3,13.2-25.9c0.5,0.2,1,0.4,1.5,0.6c-2.8,7.4-5.6,14.8-8.5,22.1
					c0.5,0.2,1,0.4,1.5,0.7c8.1-15.1,16.1-30.1,24.4-45.6c1.2,1.5,2,2.7,3.2,4.2c1.6-1.8,3.1-3.4,4.6-5.1c0.3,0.2,0.7,0.3,1,0.5
					c-3.7,11.1-7.4,22.2-11.1,33.4c0.5,0.2,0.9,0.4,1.4,0.6c3.8-5.9,7.6-11.7,11.4-17.6c0.4,0.2,0.8,0.4,1.2,0.5
					c-4.7,10.6-9.4,21.1-14.1,31.7c0.5,0.3,1,0.6,1.5,0.8c15.2-21,30.4-42,45.6-63c0.5,0.3,0.9,0.5,1.4,0.8
					c-10.2,18.1-20.5,36.2-30.7,54.4c0.3,0.3,0.7,0.5,1,0.8c11-13.3,22-26.5,33-39.8c0.4,0.3,0.8,0.6,1.2,0.9
					c-6.4,9.5-12.9,18.9-19.3,28.4c0.2,0.3,0.5,0.5,0.7,0.8c1.4-1.2,3-2.4,4.3-3.8c7.9-8.3,15.8-16.8,23.8-25c1.5-1.6,3.6-2.7,5.4-4
					c0,0-0.2-0.1-0.2-0.1c-1.2,2-2.2,4.1-3.6,5.9c-5.3,6.8-10.4,13.8-16,20.4c-14.1,16.4-24.5,35.1-35.1,53.8c-0.6,1-1,2.1-0.8,3.7
					c18.6-25.5,40.5-47.4,66.7-65.3c-3,3.7-6,7.3-9,11c0.3,0.4,0.5,0.7,0.8,1.1c3.8-2.3,7.6-4.6,11.5-6.9
					c-19.3,22.8-42.3,42-60.3,65.9c0.4,0.4,0.7,0.8,1.1,1.2c8.5-7.4,16.7-15.1,25.5-22.2c9.2-7.4,18.6-14.4,28.3-21
					C854,60.7,864,55,874,49.4c-25.2,21.4-54.2,38.1-76.2,63.5c26-14.7,48.8-34.7,77.7-44.6c-5.8,3.8-11.6,7.6-17.4,11.5
					c-5.9,3.9-11.7,7.8-17.3,12.2c17.6-7.1,32.9-19,51.8-23.1c-23.7,15.5-51.6,24-72.5,44.3c18-7.3,36.1-14.5,54.1-21.8
					c0.2,0.6,0.5,1.1,0.7,1.7c-5,2-10.1,4-15.1,6.1c-5.1,2.1-10.1,4.2-15.1,6.6c-5.1,2.5-10.1,5.4-14.8,8.9c15.3-3.1,30-9,45.9-9
					c-4.2,1.1-8.4,2.2-12.6,3.4c-4.3,1.3-8.5,2.6-12.7,4.1c-4.3,1.6-8.5,3.6-12.4,6.1c24.2-2.5,47.4-11.1,73.7-9.4
					c-25,3.7-48.7,6.1-73,14.4c13.7,1.1,25.6,1.9,37.4,3c11.6,1.2,23.2,2.7,34.7,5.1c-4.6,0.3-9.2,0.5-13.8,0.8
					c-0.1,0.4-0.2,0.8-0.3,1.2c10.8,3.1,21.6,6.2,32.3,9.3c-0.1,0.4-0.2,0.9-0.3,1.3c-8-1.1-16.1-2.3-24.1-3.4
					c-0.2,0.5-0.3,1.1-0.5,1.6c8.8,3.3,17.7,6.6,26.5,9.9c-0.1,0.3-0.2,0.7-0.3,1c-10.6-1.8-21.3-3.6-31.9-5.4c-0.1,0.3-0.3,0.7-0.4,1
					c10.4,5,20.8,9.9,31.2,14.9c-0.2,0.6-0.4,1.1-0.5,1.7c-5.2-1-10.3-2.1-15.5-3.2c-21-4.5-41.9-9.1-63.5-8.9
					c-13.5,0.1-26.8,2.1-38.9,8c-14.9,7.3-30.9,11.3-46.7,15.7c-8,2.2-16,4.5-23.7,8.1c25.6-4.3,51.3-8.6,76.9-12.9
					c0.1,0.5,0.3,1,0.4,1.5c-34.6,11.4-70.3,19.7-103.5,35.4c23.4-6,46.7-12,70.1-18c0.2,0.5,0.4,0.9,0.5,1.4
					c-32.4,14.3-64.8,28.6-97.2,42.9c0.2,0.5,0.4,1,0.6,1.5c23.5-6.8,47-13.7,70.4-20.5c0.1,0.3,0.3,0.6,0.4,0.9
					c-1.5,0.8-3,1.7-4.6,2.4c-9.9,4.1-19.8,8.1-29.7,12.3c-1.9,0.8-3.5,2.4-5.3,3.6c-2.2,0.4-4.3,0.8-6.5,1.1c0.1,0.5,0.3,1,0.4,1.4
					c2-0.9,3.9-1.8,5.9-2.7c10.8-3.7,21.6-7.4,32.5-11c0.2,0.4,0.4,0.8,0.5,1.2c-24.7,11.7-49.5,23.3-74.2,35c0.2,0.5,0.4,1,0.6,1.4
					c20.7-7.4,41.3-14.7,62-22.1c0.2,0.5,0.4,1,0.6,1.5c-22.1,9-44.1,18-66.2,27c0.2,0.4,0.3,0.9,0.5,1.3
					c17.4-5.1,34.9-10.2,52.3-15.2c0.1,0.3,0.2,0.7,0.4,1c-12.1,4.3-24.1,8.6-36.2,13c8.3,0.2,15.8-2.7,23.5-4.7
					c8-2.1,16-4.4,24.4-5.2c-23.9,9-47.7,18.1-71.6,27.1c0.2,0.5,0.3,1,0.5,1.5c17.8-4.7,35.7-9.4,53.5-14c0.1,0.4,0.2,0.7,0.4,1.1
					c-20.9,6.9-41.7,13.8-62.6,20.8c0.1,0.5,0.3,0.9,0.4,1.4c12.6-3.1,25.1-6.2,38.4-9.5c-0.7,1.3-1,2-1.8,3.7
					c13.1-3.3,25.6-6.4,38.1-9.5c0.1,0.4,0.2,0.7,0.3,1.1c-21.1,7-42.1,14-63.2,21c0.1,0.5,0.3,0.9,0.4,1.4
					c17.6-4.2,35.3-8.4,52.9-12.6c0.1,0.4,0.2,0.7,0.4,1.1c-19.1,6.4-38.3,12.9-57.4,19.3c0.1,0.5,0.3,1.1,0.4,1.6
					c19.5-4.1,39.1-8.3,58.6-12.4c0.1,0.3,0.2,0.6,0.2,0.9c-14.9,4.4-29.9,8.8-44.8,13.2c0.1,0.5,0.2,0.9,0.3,1.4
					c11.3-2.2,22.5-4.4,33.8-6.5c0.1,0.4,0.2,0.9,0.3,1.3c-15.7,4.4-31.4,8.8-47.1,13.2c0.1,0.5,0.2,1.1,0.4,1.6
					c16.7-3.2,33.5-6.4,50.2-9.6c0.1,0.3,0.2,0.6,0.2,1c-18.9,5.5-37.8,10.9-56.7,16.4c0.1,0.5,0.2,0.9,0.3,1.4
					c13.6-1.6,27.2-3.2,40.7-4.8c0.1,0.4,0.1,0.8,0.2,1.2c-16.1,3.2-32.2,6.5-48.3,9.7c-3.4,0.7-6.7,1.2-7.4,6.3c16-1.5,31.5-3,47-4.5
					c-15.4,4.1-31.5,4.4-46.7,9.4c6.4,2.6,37.8,0.8,58.1-2.5l0,0c-1.4,0.8-2.8,2.1-4.3,2.4c-12.8,2.3-25.7,4.4-38.5,7.8
					c12.8,0.4,25.5,0.8,38.3,1.2c0,0.5,0.1,1,0.1,1.4c-12.5,1.9-25.1,3.8-37.6,5.6c0,0.4,0,0.8,0.1,1.2c9.8,0.5,19.6,1,29.4,1.5
					c0,0.4,0.1,0.8,0.1,1.2c-12.8,2.4-25.6,4.7-38.3,7.1c0,0.5,0,1,0,1.5c17.3,1.4,34.6,2.8,51.9,4.2c0,0.4,0,0.8,0,1.2
					c-7.8,0.7-15.6,1.4-23.4,2c-7.7,0.6-15.5,0.9-22.7,5c19,0.7,38,1.4,57,2.2c-3.7,2.8-8.1,2-12.2,2.6c-4.4,0.6-8.8,1.1-13.1,2.4
					c3.3,0.4,6.6,0.7,9.9,1.1c0,0.4,0.1,0.8,0.1,1.2c-6.9,0.7-13.9,1.4-20.8,2c0,0.3,0,0.6,0,0.9c8.8,0,17.6,0,26.4,0
					c0,0.6,0.1,1.1,0.1,1.7c-13.3,1.7-26.7,3.4-40,5.1c0,0.1,0,0.2,0,0.4c17.3,0,34.6,0,51,0c-20,3-41.3,3.3-62.6,8.2
					c7.7,9.6,15,18.4,22.1,27.3c2,2.5,4.3,2.9,6.9,1.6c4.4-2.2,9.1-4.2,13.1-7c14.3-10.1,28.3-20.7,42.7-30.6
					c7.7-5.3,16.1-9.7,24.2-14.4c1.4-0.8,2.9-1.2,4.2-2.1c6.4-4,12.3-9.4,19.2-11.7c7.3-2.4,14.2-4.9,20.6-9.2
					c1.7-1.1,3.7-2.2,5.7-2.5c9.1-1.7,16.1-7.1,23.6-11.9c16.7-10.8,33.5-21.4,50.3-32c0.6-0.4,1.3-0.4,2.4,0.1
					c-1.9,1.5-3.8,3.1-5.8,4.6c-13.1,9.5-26.2,19.1-39.4,28.6c-3.9,2.8-7.2,6-9.3,10.8c2.2,0.7,4.1,0.9,5.5,1.8
					c4.5,2.8,8.3,1.4,12.4-0.9c20.5-11.1,40.9-22.2,61.6-33c16.7-8.7,34.6-14.2,52.6-19.7c-19.7,11.1-39.5,22.3-59,33.3
					c0.2,0.7,0.2,1,0.3,1.1c0.2,0.2,0.5,0.3,0.7,0.3c0.5,0,1.1-0.1,1.5-0.3c23.8-10.2,47.5-20.4,71.8-29.6
					c-10.5,5.4-21,10.8-31.5,16.2c0.2,0.4,0.4,0.9,0.6,1.3c6.4-2.1,12.8-4.2,19.2-6.2c2.7-0.8,5.1-2.2,8.3-0.7c1.5,0.7,4-0.3,5.9-0.9
					c4.6-1.5,9.2-3.1,14.3-3.5c-11.2,5.4-22.4,10.8-33.6,16.3c0.2,0.5,0.3,1,0.5,1.5c3.6-1.1,7.1-2.1,10.6-3.2
					c5.2-1.7,10.4-3.4,15.7-5.1c1.2-0.4,2.8-1.4,3.7-1c6.3,2.9,12.1-0.9,18.4-0.5c-7.3,2.9-14.6,5.7-21.9,8.6c0.1,0.4,0.3,0.9,0.4,1.3
					c9.6-2.1,19.2-4.2,28.7-6.3c0.1,0.4,0.2,0.7,0.3,1.1c-6.5,2.4-13,4.8-19.5,7.2c0.1,0.3,0.2,0.7,0.3,1c10-2.5,20-5,30.1-7.5
					c0.1,0.4,0.2,0.7,0.4,1.1c-17,6.4-34,12.8-51,19.2c0.1,0.5,0.2,0.9,0.3,1.4c18.1-3.6,36.2-7.1,54.3-10.7c0.1,0.3,0.1,0.5,0.2,0.8
					c-8,2.4-16,4.8-23.9,7.2c0.1,0.4,0.2,0.9,0.3,1.3c10.8-1.6,21.5-3.1,32.3-4.7c0.1,0.3,0.1,0.6,0.2,0.9
					c-15.9,3.9-31.8,7.8-47.7,11.7c10.2,1.2,20.1-1,30.1-1.9c10.1-0.9,20.2-2.2,30.6-1.9c-28.1,5.3-56.1,10.7-84.2,16
					c0.1,0.4,0.1,0.8,0.2,1.1c28.1-1.9,56.3-3.8,84.4-5.7c0,0.3,0.1,0.6,0.1,0.8c-18.6,2.5-37.2,4.9-55.8,7.4c0,0.4,0,0.9,0,1.3
					c19.6-0.6,39.1-1.1,58.7-1.7c0,0.3,0,0.5,0,0.8c-13.5,1.4-27.1,2.9-40.6,4.3c0,0.3,0,0.7,0,1c16.1,0,32.1,0,48.2,0
					c0,0.4,0,0.9,0.1,1.3c-22.8,1.8-45.6,3.6-68.4,5.4c0,0.4,0,0.7,0,1.1c20.7,1.4,41.4,2.7,62.5,4.1c-19.4,0-38.3,0-57.3,0
					c-0.1,0.2-0.1,0.4-0.2,0.6c14.7,2.4,29.4,4.7,44.1,7.1c0,0.3,0,0.6-0.1,0.9c-10.2-1.1-20.3-2.1-30.5-3.2c-0.1,0.5-0.2,0.9-0.3,1.4
					c17.2,3.9,34.5,7.8,51.7,11.7c-0.1,0.3-0.1,0.7-0.2,1c-9.3-1.5-18.6-3-27.9-4.5c-0.1,0.4-0.2,0.8-0.2,1.2
					c12.6,3.4,25.2,6.9,37.9,10.3c-0.1,0.4-0.2,0.7-0.2,1.1c-17.6-3.7-35.1-7.4-52.7-11.1c-0.2,0.5-0.3,0.9-0.5,1.4
					c20.1,6.9,40.1,13.9,60.2,20.8c-0.1,0.3-0.2,0.6-0.3,1c-12.9-3.7-25.8-7.3-38.8-11c-0.2,0.5-0.4,1.1-0.6,1.6
					c9.1,3.9,18.1,7.9,27.2,11.8c-0.1,0.3-0.2,0.7-0.4,1c-10.2-3.6-20.4-7.2-30.6-10.8c13.6,10.3,28.6,18.2,42.4,28.3
					c-10.1-4.8-20.3-9.6-30.4-14.3c-0.3,0.5-0.6,1-0.9,1.5c14.4,6.6,22.7,20.2,35.1,29.1c-7.6-1.7-12.9-7.9-20.9-9.6
					c9.3,10.9,18.6,21.7,27.9,32.6c-0.3,0.3-0.6,0.6-0.9,0.9c-5.6-4-11.1-7.9-16.7-11.9c-0.3,0.3-0.7,0.5-1,0.8c0.9,2.5,1.8,5,2.7,7.5
					c-0.4,0.2-0.8,0.5-1.2,0.7c-4.4-6.2-8.8-12.3-13.2-18.5c-0.5,0.3-1,0.5-1.5,0.8c2.6,6,5.2,11.9,7.9,17.9c-0.4,0.2-0.7,0.4-1.1,0.6
					c-4.9-7.9-9.8-15.7-14.8-23.6c-0.4,0.2-0.8,0.4-1.2,0.6c1.3,3.2,2.7,6.5,4,9.7c-9.1-10.2-16.5-21.6-24.7-32.5
					c-0.5,0.3-0.9,0.6-1.4,0.9c4.5,8.4,9.1,16.8,13.6,25.1c-9.1-9-16.3-19.6-25.5-28.8c3.9,7.6,7.8,15.1,11.7,22.7
					c-0.3,0.2-0.7,0.4-1,0.7c-11.1-14.7-22.2-29.5-33.3-44.2c-0.6,0.4-1.1,0.8-1.7,1.1c9.5,14.8,18.9,29.5,28.4,44.3
					c-0.2,0.2-0.4,0.3-0.6,0.5c-19.2-14-38.3-27.9-57.5-41.9c-0.4,0.6-0.9,1.1-1.3,1.7c6.1,4.9,12.1,9.8,17.9,14.5
					c-13.4,6.8-26.7,13.4-39.9,20.1c0.2,0.5,0.4,1.1,0.6,1.6c17.3-2,34.5-4,51.8-6.1c0.1,0.4,0.2,0.8,0.3,1.3
					c-11.8,3.4-23.7,6.8-35.5,10.2c0.1,0.5,0.1,1,0.2,1.5c17.6,1.7,35.3,3.3,52.9,5c0,0.3,0,0.5,0,0.8c-11.4,0-22.8,0-34.2,0
					c0,0.5-0.1,1-0.1,1.5c22.9,2.7,45.8,5.5,68.7,8.2c0,0.4,0,0.8-0.1,1.2c-16.5,0-33,0-50.3,0c2,4.5,5.3,4.6,8.5,5
					c14.3,1.7,28.6,3.4,42.8,5.1c2.1,0.3,4.1,0.7,7.3,1.3c-2.2,1.1-3.5,1.8-6.5,3.4c15.3,3.3,29,6.2,42.7,9.1
					c-0.1,0.6-0.1,1.3-0.2,1.9c-10.9,0-21.7,0-32.6,0c-0.1,0.7-0.2,1.4-0.3,2c13.8,3.5,27.6,7,41.4,10.5c-0.1,0.4-0.2,0.7-0.2,1.1
					c-21.2-2.9-42.4-5.9-63.5-8.8c-0.1,0.4-0.3,0.8-0.4,1.1c25.4,9.4,50.7,18.8,76.1,28.2c-0.1,0.4-0.3,0.9-0.4,1.3
					c-6.4-0.8-12.9-1.6-19.3-2.4c-0.1,0.3-0.3,0.7-0.4,1c7.3,3.6,14.5,7.3,21.8,10.9c-0.1,0.5-0.2,1-0.3,1.5
					c-6.6-0.3-13.1-0.6-19.7-0.9c-0.3,0.4-0.5,0.7-0.8,1.1c4.9,4.3,9.8,8.6,15.8,13.9c-5.5-0.6-9.4-1-15.5-1.6
					c5.4,6.4,9.6,11.4,14.1,16.8c-1.9,0.3-3.2,0.4-5.7,0.7c1.6,3.3,2.8,6.1,4.2,8.7c3.3,6.5,6.6,13.1,10,19.6
					c5.3,10.2,10.7,20.3,16,30.5c1.7,3.2,3.4,6.5,4.7,9.9c1.2,3.2,1.7,6.5-0.8,10.7c-3.3-4.4-6-8.4-9.1-11.9c-3-3.5-5.7-7.4-11.4-9.6
					c0.8,4.4,1.4,7.9,2,11.4c1.8,10.3,3.9,20.6,5.3,30.9c1.9,13.8-1.5,26.9-7.7,39.7c-0.7-4.4-1.6-8.8-2-13.3
					c-1.6-17.4-6.4-33.6-13.9-49.5c-4.7-9.8-8.5-20.1-13.7-29.8c-2.9-5.4-4.1-6.4-10.5-9.2c0,3.2,0,6.1,0,9.1
					c-0.4,0.1-0.8,0.3-1.2,0.4c-7.5-14.7-15.1-29.5-22.6-44.2c-0.3,0.2-0.7,0.3-1,0.5c2.6,5.9,4.8,11.9,8,17.5
					c3.7,6.5,3.4,12.9,0.7,20.5c-1.7-3.2-3.1-5.8-5.2-9.7c-0.3,3.5-0.5,5.6-0.8,9.7c-2.4-3.8-3.7-6.2-5.3-8.4
					c-1.8-2.6-2.2-6.6-6.9-6.4c-0.8,0-1.8-2.3-2.6-3.6c-4.4-7.2-20.6-23.8-27.8-28.2c1.2,4.1,2.2,7.4,3.2,10.8
					c-0.3,0.3-0.6,0.5-0.9,0.8c-3.9-5-7.9-10-11.8-15.1c-0.5,0.3-1.1,0.6-1.6,0.9c1.7,4.4,3.4,8.9,5.1,13.3c-0.2,0.1-0.4,0.1-0.6,0.2
					c-6.9-9.3-13.7-18.6-20.6-27.9c-0.4,0.2-0.7,0.4-1.1,0.6c0.6,2.4,1.3,4.7,1.9,7.1c-0.3,0.2-0.7,0.4-1,0.6
					c-7.1-8.5-14.1-17-21.2-25.5c-0.4,0.3-0.8,0.5-1.3,0.8c4.1,6.9,8.1,13.9,12.2,20.8c-0.4,0.3-0.7,0.6-1.1,0.8
					c-6.7-8.2-13.5-16.5-20.2-24.7c-0.4,0.2-0.7,0.4-1.1,0.6c2.2,4.1,4.4,8.2,6.7,12.3c-0.4,0.3-0.8,0.5-1.2,0.8
					c-5.3-7.2-10.5-14.4-15.8-21.6c-5.2-7.2-10.5-14.3-15.7-21.5c-0.5,0.3-0.9,0.6-1.4,0.9c2.8,4.3,5.5,8.6,8.3,12.9
					c2.8,4.3,5.6,8.5,7.3,13.5c-8.4-11.2-16.7-22.3-25.1-33.5c-0.5,0.3-0.9,0.6-1.4,1c12,19.7,25,38.7,37.1,58.2
					c-0.4,0.3-0.9,0.6-1.3,0.9c-24.1-32.5-48.2-64.9-72.3-97.4c-0.4,0.2-0.8,0.5-1.2,0.7c0.9,1.7,1.7,3.5,2.7,5.2
					c4.8,7.8,9.6,15.6,14.4,23.4c2.4,3.9,5.4,7.5,4.8,12.9c-0.2,2,1.7,4.3,2.8,6.3c4.2,7.7,8.5,15.4,11.5,23.8
					c-13.2-20.1-26.5-40.3-39.7-60.4c-0.5,0.3-1,0.6-1.6,0.9c8.2,16.3,18.1,31.8,26.1,48.8c-1-0.7-2-1.5-3.7-2.7
					c0.3,2.1,0.5,3.6,0.9,6.6c-14.1-18-27.3-35-40.5-51.9c-0.6,0.5-0.8,0.6-0.9,0.8c-0.1,0.2-0.2,0.5-0.1,0.7
					c11.8,17.2,23.6,34.4,34.9,52c-18.3-21.3-35.7-43.4-54-64.6c-0.5,0.4-1,0.7-1.5,1.1c15.1,22.7,30.2,45.4,45.3,68.1
					c-0.4,0.3-0.8,0.6-1.2,0.9c-4.3-5.5-8.7-11.1-13-16.6c-0.5,0.3-1,0.5-1.5,0.8c4.8,10,9.7,20,14.5,30c-0.5,0.3-1,0.6-1.6,0.8
					c-10.1-15.5-20.2-30.9-30.2-46.4c-0.4,0.2-0.8,0.4-1.2,0.6c3.6,6.8,7.2,13.6,10.7,20.4c-5.1-4.7-8.2-10.6-11.7-16.3
					c-2.2-3.5-4.5-7.1-7.5-9.9c-4.2-4-9.4-4.8-16.4-2c1.8,1,2.7,1.4,3.6,1.9c0,0.4-0.1,0.7-0.1,1.1c-8.8,0-17.5,0-26.3,0
					c2,3.9,5.2,2.8,7.9,3.3c2.8,0.5,5.7,0.8,8.6,1.1c3.1,0.3,6.2,0.6,9.3,1.9c-9.6,0-19.2,0-28.8,0c0,0.4-0.1,0.8-0.1,1.3
					c10.9,2.3,21.7,4.7,32.6,7c0,0.4-0.1,0.8-0.1,1.3c-7.3-0.6-14.7-1.3-22-1.9c-0.1,0.5-0.1,0.9-0.2,1.4c9,2.4,17.9,4.8,26.9,7.2
					c-0.1,0.3-0.1,0.6-0.2,1c-11.2-1.7-22.4-3.4-33.6-5.1c-0.2,0.6-0.3,1.1-0.5,1.7c10.1,3.9,20.2,7.8,30.3,11.6
					c-0.1,0.4-0.2,0.8-0.3,1.2c-4.7-1.3-9.4-2.5-14-3.8c-5-1.4-9.9-2.8-14.9-4.2c-0.2,0.5-0.4,1-0.6,1.4c10.6,5,21.1,9.9,31.7,14.9
					c-0.1,0.3-0.3,0.7-0.4,1c-6-2.1-12-4.1-17.9-6.2c-0.1,0.3-0.3,0.7-0.4,1c4.4,2.4,8.8,4.9,13.2,7.3c-0.2,0.4-0.4,0.9-0.6,1.3
					c-9-3.7-18-7.4-27-11.2c-0.2,0.4-0.4,0.8-0.6,1.2c4.3,2.8,8.5,5.7,12.8,8.5c-0.1,0.3-0.2,0.5-0.2,0.8c-2.2-0.6-4.5-1.1-6.7-1.7
					c-0.2,0.3-0.4,0.6-0.6,0.9c8.8,6.3,17.5,12.6,26.3,18.9c-0.2,0.4-0.4,0.8-0.6,1.3c-5-2.3-10-4.5-15-6.8c-0.3,0.5-0.6,1-0.9,1.5
					c6.2,4.9,12.3,9.8,18.5,14.7c-0.3,0.5-0.6,0.9-0.9,1.4c-7.3-4.6-14.5-9.2-21.8-13.8c-0.4,0.4-0.7,0.8-1.1,1.3
					c5.3,5.3,10.7,10.6,16,16c-0.3,0.4-0.6,0.8-1,1.1c-2.8-1.9-5.6-3.8-8.3-5.8c-0.2,0.3-0.5,0.6-0.7,0.9c2.8,3.3,5.5,6.5,8.3,9.8
					c-0.3,0.3-0.6,0.7-0.9,1c-4.4-4-8.9-7.9-13.3-11.9c2.1,6.6,7.2,11.1,9.9,17.4c-3.3-3.1-6.6-6.1-9.9-9.2
					c3.5,9.2,8.7,16.7,18.4,20.3c12.3,4.5,24.5,9.1,36.6,14.1c11,4.5,20.6,11.1,29.3,19.4c-10-2.7-18.6-8.1-27.7-12.6
					c-9-4.4-18-8.9-27.8-12.1c1.1,1.3,2.2,2.6,3.3,4c6.3,7.3,12.8,14.5,18.9,21.9c1.8,2.2,4.7,4.3,3.1,8.2c-0.3,0.7,1.1,2.2,1.9,3.2
					c6.7,8.4,13.2,16.9,20.2,25c4.6,5.3,6.6,11.5,7.8,18.3c-1.2-1.6-2.5-3.2-3.6-4.9c-11.3-18.4-25.9-34.1-40.9-49.5
					c-4.1-4.2-9-6.6-14.8-8c6.2,11.5,11.5,23.4,20,33.4c20.9,24.6,38.8,51.3,56.2,78.4c0.5,0.8,0.8,1.7,0.3,3.2
					c-8.8-9.8-17.6-19.5-26.5-29.3c-0.5,0.3-1,0.7-1.5,1c9.1,15.6,19.3,30.6,27.6,46.9c-4.8-5.6-9.6-11.3-14.4-16.9
					c-0.4,0.2-0.7,0.4-1.1,0.6c1.2,3.5,2.5,7,3.7,10.5c-0.2,0.1-0.5,0.2-0.7,0.4c-3.2-5.1-6.4-10.2-9.6-15.3c0,16.6,10.7,29.3,13.1,45
					c-8.5-14.3-17.1-28.6-25.6-43c-0.6,0.2-1.2,0.5-1.7,0.7c2,7.5,3.3,15.2,6.1,22.4c6.6,17.1,13.8,33.9,20.8,50.8
					c2.7,6.5,5.2,13.1,4.4,21.8c-2.5-3.4-4.4-6-6.3-8.5c-0.4,0.1-0.9,0.3-1.3,0.4c2.8,13.6,5.6,27.2,8.4,40.8c-0.3,0.2-0.7,0.4-1,0.5
					c-1.3-1.5-2.6-3.1-4.6-5.4c-0.5,2.9-0.8,5-1.3,8.3c-4.2-17.7-8.1-34.1-12.1-50.6c-0.6,0.1-1.2,0.2-1.8,0.3
					c1.2,7.8,2.3,15.6,3.7,23.3c1.5,8,3.3,15.9,4.9,23.8c2.4,11.9,1.8,23.8,0.1,37.3c-1.8-3.6-2.9-5.7-4-7.9c-0.4,0-0.8,0-1.2-0.1
					c-0.2,4.1-0.4,8.2-0.6,12.4c-0.3,0-0.6,0.1-0.9,0.1c-2.1-9.6-4.3-19.2-6.4-28.8c-0.4,0-0.8,0.1-1.2,0.1c0,2.6-0.1,5.2,0,7.7
					c0.2,7.1,0.6,14.1,0.7,21.2c0.1,8.4,2.3,17.1-4.2,24.4c-1.4-7.3-2.8-15.2-4.3-23c-0.5,0-1.1,0-1.6,0.1c-0.8,8.9-1.5,17.8-2.3,26.6
					c-0.3,0-0.6,0-0.9,0c-0.8-5.2-1.7-10.3-2.5-15.5c-3.6,13.3-3.3,26.9-5.2,40.9c-7.5,0.6-6.2,10.1-10.8,12.2
					c-6.3,2.8-4.8,10.4-11.2,12.6c-0.9-5-5.1-9.5-3-15.4c1.8-5.1,3.8-10.1,4.7-15.8c-1,1.1-2,2.1-3.3,3.5c-0.4-1.3-0.8-2.3-1.2-3.5
					c-1.4,0.4-2.8,0.7-4.5,1.2c0.1-1.1,0-1.8,0.2-2.5c5.5-19.6,11.3-39.2,16.5-58.9c2.7-10.3,4.5-20.9,6.6-31.5
					c0.5-2.5,2.6-5.6-1.5-7.4c-0.4-0.2,0-2.4,0.2-3.7c1.8-15.6,2.3-31.2-0.2-46.9c-1-6.4-0.7-12.9-2-19.4c-1.9,17.4-3.7,34.7-5.6,52.1
					c-3.1-28.9,1.9-58.2-4.3-87.2c-5.2,23.7-8.3,47.8-13.9,71.6c0-7.7,0-15.4,0-23.1c-0.4,0-0.7,0-1.1-0.1c-0.4,1.1-0.8,2.2-1.8,4.6
					c-1.7-10.5,1-19.5,1-28.5c0-9,0-18-1.1-27c-1.4,12.4-2.8,24.7-4.3,38.2c-1.4-2.2-2.2-3.5-3.2-5c-0.6,1.1-1,1.8-2.2,3.9
					c1.9-20.2,3.7-38.9,5.4-57.6c0-4.5,0-9.1,0-13.6c-0.3,0-0.6,0-0.8,0c0.3,4.5,0.6,9.1,0.9,13.6c-0.9,1.7-2.1,3.3-2.5,5.1
					c-2.3,11.2-4.3,22.4-7.1,33.5c0.2-20.5,5.7-40.6,3-61.3c-3.8,17.8-7.6,35.5-11.5,53.3c-0.5-0.1-1.1-0.2-1.6-0.2
					c1.4-12.4,2.9-24.8,4.2-37.2c1.3-13,3-26,3.6-39.1c0.6-12.7,0.1-25.4-0.7-38.3c-5.6,30.2-10.4,60.6-21.1,89.6
					c1.5-10.8,3.1-21.6,4.6-32.3c-0.4-0.1-0.8-0.2-1.2-0.2c-2.4,7.9-4.8,15.8-7.2,23.6c-0.4-0.1-0.9-0.2-1.3-0.3
					c1.5-10.2,3.1-20.4,4.6-30.6c-0.3-0.1-0.6-0.2-1-0.3c-1.6,4.8-3.2,9.6-4.8,14.4c-1.7,5.2-3.2,10.4-6.2,15.3
					c1.9-10.5,3.8-21,5.7-31.5c-0.3-0.2-0.6-0.3-0.9-0.5c-2.3,4.6-4.7,9.2-7,13.8c-0.3-0.1-0.5-0.2-0.8-0.3c3.1-10.1,6-20.3,9.4-30.4
					c2.8-8.5,3-16.9,0.6-26.2c-4.6,5.5-5.6,12-8.2,17.7c-2.9,6.1-5.4,12.5-8.2,18.7c-2.6,6-5.4,11.9-8.8,17.5
					c4.1-16.9,11.8-32.8,13.7-50.3c-2.9,6.3-5.8,12.6-8.7,18.9c-0.2-0.1-0.3-0.1-0.5-0.2c4.2-15.4,8.3-30.8,12.5-46.1
					c-0.6-0.2-1.1-0.4-1.7-0.6c-8.6,17.7-13.5,37.1-25.3,53.3c0.7-2,1.3-4.1,2.1-6.1c5.6-14.4,11.4-28.7,16.9-43.1
					c1.9-4.8,3.4-9.7,1.4-15.4c-8.6,20.8-17.1,41.7-25.7,62.5c-0.4-0.1-0.9-0.3-1.3-0.4c0.5-3.5,1-7.1,1.7-11.9
					c-2.4,1.9-3.9,3.2-6.9,5.7c8.9-17.1,17-32.6,17.9-50.9c-8,13.8-16,27.5-24,41.3c-0.5-0.2-1-0.5-1.5-0.7
					c4.3-9.8,8.6-19.6,12.9-29.5c-0.4-0.2-0.8-0.4-1.2-0.5c-2.7,4.7-5.5,9.4-8.2,14c-0.3-0.1-0.6-0.3-0.9-0.4c2.8-7,5.7-14,8.5-21.1
					c-0.4-0.2-0.8-0.5-1.2-0.7c-4.4,7.6-8.9,15.2-13.3,22.8c-2.9-2.3,3.7-6.7-2.1-8c0.5-1.5,0.9-3,1.7-4.3c9.6-17.4,12.3-37.1,18-55.8
					c0.2-0.6-0.2-1.4-0.4-3.6c-4.4,8.1-8.2,15.1-12,22.2c-0.3-0.1-0.5-0.2-0.8-0.3c0.9-4.8,1.7-9.6,2.6-14.4c-0.4-0.2-0.9-0.4-1.3-0.6
					c-2.2,4.4-4.5,8.8-6.7,13.2c-0.4-0.1-0.9-0.1-1.3-0.2c0.5-4.9,0.9-9.8,1.4-14.6c0.5-5.2,1-10.4,1.6-17.1c-2.4,2.7-3.8,4.3-5.8,6.6
					c0.4-3.6,0.7-6.4,1.1-9.3c-0.3-0.1-0.6-0.2-0.9-0.3c-1.4,2.9-2.9,5.7-5.1,10.1c0-4.8,0-7.9,0-12.9c-2.1,2.7-3.2,4.1-5,6.3
					c0-3.1,0-5.1,0-7.1c-0.4-0.2-0.8-0.4-1.2-0.5c-1.7,3.1-3.5,6.2-5.2,9.4c-0.3-0.1-0.7-0.1-1-0.2c0.4-4.7,0.7-9.4,1.1-14.2
					c-0.5-0.4-1-0.9-1.5-1.3c-0.3,1.5-0.6,3.1-0.9,4.6c-0.6-0.2-1.1-0.4-1.7-0.7c-0.8-1.9-1.5-3.8-2.5-6.2c-2,1.1-3.5,1.9-5,2.7
					c-1.1-1-2.1-2-3.6-3.5c-2.2,3.8-5.1,6.2-9.4,6.6c-0.2-1.4-0.5-3.1-0.9-5.9c-5.8,1.8-11.1,3.4-16.4,5c-0.5,3.1-0.9,5.4-1.2,7.6
					c-0.4,0.4-0.8,0.7-1.2,1.1c-0.8-2.1-1.7-4.2-2.5-6.3c-5.4,2.5-4.3,5.2-4,7.8c1.7,11.1,3.3,22.2,4.9,33.4c0.3,2.3,0.4,4.6-0.6,7.2
					c-3.9-13.3-7.8-26.7-12-40.9c-7.9,4.6-14.9,9.4-19.3,17.1c-2.1,3.6-3.7,7.5-5.3,11.4c-3.3,7.8-4.5,15.3-1.8,24.2
					c5.4,17.8,6.3,36.5,8.1,55c0.6,6.4,2.4,12.8,4.2,19c1.1,4.1,2.8,7.8-0.6,11.7c-2.4,2.7-0.9,5.5,1.1,7.8c2.6,3,2.8,6,0.3,9.2
					c-0.8,1-1.8,2.9-1.4,3.4c5.2,7-2,15.5,3.2,22.3c-1.6,2.1-3,3.8-4.7,6.1c7.5,5.5,2.6,12.5,2,18.6c-0.9,10.4-3.5,20.6-5.2,30.9
					c-0.5,3.1-0.7,6.3-0.4,9.4c1.9,17.8,0.5,35.4-1.9,53.1c-0.3,2.5-0.2,5.3,0.7,7.6c1.5,3.9,2.9,7.3,1,11.9
					c-0.9,2.3,1.8,6.1,3.2,10.3c-1.2,2.6-3.2,6.5,0.1,10.4c0.4,0.4,0.4,1.8,0.1,2.2c-3.7,4-0.4,7.3,1.2,11c-3.6,5.5-4.9,11.2-1.5,17.5
					c0.6,1.1-0.1,3-0.1,4.5c-0.1,7.3,1.2,14.5-0.1,21.8c-0.2,1.2,1.2,2.8,1.9,4.2c0.6,1.1,1.9,2.7,1.6,3.4c-3.8,7.3,2.9,15.2-1.3,22.7
					c-0.8,1.4,0.7,4.3,1.3,6.4c0.4,1.2,2,2.7,1.7,3.3c-3.4,6.1,0.9,12.2-0.3,18.3c-1,5-0.3,10.3-0.3,15.4c0,4.7,0.1,9.3,0,14
					c-0.1,7.3,0.6,14.6-2.1,21.7c-0.8,2,0.6,5.2,1.8,7.5c2.6,5,2.5,10,0.8,15.2c-1.6,4.9-2.1,9.5,1.1,14.2c1.1,1.7,0.6,5-0.2,7.3
					c-1,3.2-1.3,5.9,0.1,9.1c0.8,2,1.2,4.8,0.4,6.8c-3.1,8.1-1.4,16,0.5,23.9c1.2,4.9,0.5,9.6,0.6,14.4c0,6.3,0.8,12.3-2,18.3
					c-0.5,1,1.6,3.8,3.1,5c2.7,2.3,2.9,4.6,1.7,7.6c-2.1,5.3-2.6,10.7,0.3,15.9c0.1,0.2,0.3,0.5,0.3,0.7c-2.2,10.3,4.3,20.2,1.8,30.6
					c-0.6,2.4-0.4,5.4,0.5,7.7c6.1,16,6.9,32.5,5,49.3c-0.5,4,0.6,8.3,1.7,12.3c2.4,7.9,4,15.6,1.3,23.8c-0.9,2.8,0,6.2,0,9.3
					c0.1,7.5,0.5,15.1,0,22.6c-0.4,5.6-0.4,10.8,2.7,15.8c3.4,5.4,3.9,11.4,1.7,17.4c-2.3,6.4-1.9,12.6-0.2,19.2
					c1.3,5.2,1.6,10.8,1.6,16.3c0.2,13.3-0.2,26.7-0.1,40c0,2.8,0.2,6.1,1.7,8.3c3,4.5,3,9.2,2.9,14.2c-0.2,15.7,0,31.4,0.1,47
					c0,1.7,0.3,3.9,1.4,5.1c4.2,4.7,3.7,10.2,2.8,15.6c-1.3,7.7-1.5,14.9,2.6,22.1c1.4,2.4,0.9,6.2,0.4,9.1c-0.9,5-0.1,9.7,0.8,14.7
					c1.2,6.6,0.9,13.5,1.5,20.2c0.4,4.4,0.6,8.9,1.8,13.1c1.6,6,2,11.7,0.3,17.8c-2.3,8.2-2.9,16.3,0.6,24.6c1,2.4,0.6,5.7-0.1,8.4
					c-1.1,4-1.1,7.6,0.5,11.4c2.6,6.3,3,12.7,0.3,19.1c-0.5,1.2-0.9,2.6-0.6,3.7c1.3,4.8,3,9.6,4.3,14.4c0.4,1.7,0.4,3.6,0.1,5.3
					c-1.2,5.3-1.2,10.3,1.5,15.2c1.9,3.5,1.4,7.1-0.2,10.5c-2.8,6-0.5,11.7,1.2,17.4c0.6,2.1,1.8,4.3,1.8,6.4
					c0.2,11.2,0,22.4,0.1,33.7c0,1,0.1,2.2,0.5,3.1c5.5,12.6,4.3,26.1,5.4,39.3c0.5,5.5,1.2,10.9,1.8,16.4
					C647.2,1925.9,611.1,1925.9,575,1925.9z M956.4,448.8c-1.1,1.9-2.2,3.8-3.6,6.2c2.9,0,5,0,8.1,0c-5.9,3.4-10.8,6.2-15.7,9
					c0.2,0.4,0.4,0.9,0.7,1.3c12.3-2.2,24.7-4.5,37-6.7c0-0.6,0.1-1.3,0.1-1.9c-7.6-3.1-15.2-6.3-22.9-9.2c-1-0.4-2.6,1-3.9,1.5
					c0.9-3.1-1.5-4-3.4-5.3c-19.4-13.7-38.9-27.5-58.3-41.2c-2.1-1.4-4.2-2.7-6.3-4.1c0.9,2.6,2.5,4.5,4.3,6.1
					c14.9,13.9,30.1,27.6,44.7,41.8c4.7,4.6,8.9,6.7,15,3C953.1,448.8,954.9,449.1,956.4,448.8z M667.3,535.5
					c-0.4-0.3-0.9-0.6-1.3-0.9c-6.5,7.5-13,14.9-19.5,22.4c-4.3,5.1-4.3,6.1-0.3,13.3C653.4,558.4,660.4,547,667.3,535.5z
					 M602.3,493.6c0.7,0.1,1.4,0.2,2.1,0.2c2.3-9.6,6-18.9,6.7-29c-4.3-1.6-6.9-1-7.2,3.3C603.3,476.6,602.9,485.1,602.3,493.6z
					 M571.5,288.9c1.6-4.9,1.8-5.1,0-6.6c-4.8-3.9-9.7-7.7-14.7-11.4c-2.7-2-4.2-0.4-5.4,2.7C557.9,278.6,564.6,283.6,571.5,288.9z
					 M689.5,541.8c-0.5-0.2-0.9-0.5-1.4-0.7c-4.6,8-9.2,16-13.9,24.1c4,1.7,5.9,0.5,7.1-2.4C684.1,555.8,686.8,548.8,689.5,541.8z
					 M657.8,192.4c1.1-11.1,2.3-22.2,3.4-33.3c-0.9-0.1-1.7-0.2-2.6-0.3C654.5,169.6,657.2,181.1,657.8,192.4z M829.7,414
					c7.1,5.9,13,10.7,19.7,16.3c0.7-8.2-5.5-9.6-9-12.8C838.2,415.4,836.1,411.6,829.7,414z M539,255.9c-1.6,8.3,1.3,14.1,6.6,13.2
					c0.8-1.5,1.8-3.4,3-5.6C545.3,260.9,542.5,258.7,539,255.9z M537.5,545.3c0.8-0.2,1.6-0.5,2.4-0.7c1.3-3.5,2.2-7.3-0.1-10.7
					c-2-3-5.2-2.4-9.4-1.1C532.9,537.3,535.2,541.3,537.5,545.3z M570,297.2c0.4-1,0.9-1.7,0.7-2c-3-5.5-8.8-7.4-13.8-10.2
					c-0.4-0.2-1.9,0.7-2.3,1.4c-0.3,0.7-0.2,2.4,0.3,2.7C559.8,292.1,564.3,295.9,570,297.2z M517.9,412.8c5.3-2.5,10.6-4.9,17-7.9
					C522.7,400.7,521.4,403.6,517.9,412.8z M568,306.3c-5.8-0.9-10.5-1.7-15.2-2.4c3,3.9,5.7,7.2,8.6,11
					C563.7,311.8,565.4,309.6,568,306.3z M505.3,472.5c-0.5-0.4-0.9-0.8-1.4-1.1c-4.1,2.9-8.1,5.9-12.2,8.8c0.1,0.5,0.3,1,0.4,1.5
					c2.7,0.3,5.4,0.7,8.3,1C502.2,479,503.7,475.7,505.3,472.5z M768.1,448.5c0.4-0.8,0.7-1.6,1.1-2.3c-6.1-3.4-12.1-6.8-18.2-10.2
					c-0.3,0.5-0.6,1.1-0.9,1.6C755.9,441.6,759.8,449,768.1,448.5z M688.7,148c-1-0.3-2-0.6-3-1c-2.7,7.7-3.2,15.9-2.8,24.4
					C684.8,163.6,686.8,155.8,688.7,148z M563.4,301.7c0.2-0.5,0.4-0.9,0.6-1.4c-3.9-2.3-7.8-4.6-12-7.1c-1.2,1.6-2.2,2.9-3.8,5.1
					C553.9,299.5,558.7,300.6,563.4,301.7z M556.6,348.3c7.3,1.3,7.3,1.3,11.1-2.5c-1.8-1.6-3.5-3.3-5.7-5.3
					C560,343.4,558.6,345.4,556.6,348.3z M614.3,511.6c-0.7-0.1-1.3-0.2-2-0.3c-1.6,6.2-3.2,12.5-4.7,18.7c0.5,0.1,1.1,0.3,1.6,0.4
					C611.9,524.4,614.3,518.3,614.3,511.6z M668.1,471.4c4.2-7.4,2.9-9.1-6.3-10.1C661.8,465.9,666.2,467.2,668.1,471.4z M529.6,249.2
					c0.5,4.8-2,9.1,3.4,11.7C535.2,252.3,535.2,252.3,529.6,249.2z M656.6,440.4c-0.6,0.2-1.2,0.4-1.8,0.6c-0.4,2.6-0.8,5.2-1.2,8.1
					c3.1,0,5.2,0,8.9,0C660,445.5,658.3,442.9,656.6,440.4z M765.6,488.8c-2.3-7.7-5.3-11.3-10.8-13.5
					C759.6,479.8,759.1,486.9,765.6,488.8z M762.3,434.2c8.3,8.5,10,9.1,13.6,4.9C771.2,437.4,766.8,435.8,762.3,434.2z M682.6,491.6
					c-1.4-2.4-2.6-4.3-4.5-7.5c-1.6,4.6-2.6,7.6-4.2,12.2C677.6,494.3,679.8,493.1,682.6,491.6z M752.6,567.5
					c-2,8.4-2.5,14.9-1.9,21.6c0.6,0,1.3,0,1.9,0.1C752.6,582.5,752.6,576,752.6,567.5z M706.3,567.1c0-3.2,0-6.4,0-10.2
					C701.1,564.5,701.1,565.9,706.3,567.1z M848.4,442.8c0.6-0.6,1.1-1.2,1.7-1.8c-3.9-3.3-7.7-6.6-11.6-9.9c-0.5,0.5-0.9,1-1.4,1.5
					C840.9,436.1,844.6,439.4,848.4,442.8z M741.4,453.8c-2.9,5.4-2.9,5.4,2.9,7.6C747.9,457.5,745.3,455.7,741.4,453.8z M697.8,566.6
					c1.1-4.3,2-7.8,2.9-11.3C694.7,562.4,694.7,562.4,697.8,566.6z M736.1,571.6c-1.6,3.1-4.7,6.1,0,10.3
					C736.1,577.8,736.1,574.7,736.1,571.6z M789.8,477.4c-0.4,0.4-0.7,0.8-1.1,1.2c3.3,2.4,6.6,4.7,9.9,7.1
					C797.8,480.1,793.5,479.2,789.8,477.4z M770.9,485.7c0.5-6.8,0.5-6.8-6.1-8.5c0.9,1.6,1.5,2.9,2.4,4.1
					C768,482.5,769,483.6,770.9,485.7z M721.7,451.1c1.2,2.6,1.7,4,2.4,5.4c0.7,1.3,1.6,2.6,2.4,3.9
					C729.9,454.9,729.9,454.9,721.7,451.1z M539.1,424.1c6.4-0.8,7.1-1.5,8.3-8.9C544.2,418.6,541.9,421.1,539.1,424.1z M547.9,278.4
					c-1,2.7-1.6,4.4-2.2,6.2c3.9,1.8,5.2,0,6.7-2.6C551.1,280.9,550.1,280.1,547.9,278.4z M542.3,396.4c-4-1.6-6.7-2.8-8.9,0.9
					C538,399.2,538,399.2,542.3,396.4z M778.3,482.3c2.1,2.1,4.2,4.2,6.3,6.2C785.7,483.1,782.5,482.2,778.3,482.3z M786,449.1
					c0.5-0.9,0.9-1.7,1.4-2.6c-2.1-0.8-4.1-1.6-6.2-2.3c-0.2,0-0.7,1.2-1.1,1.8C782.1,447.1,784.1,448.1,786,449.1z M819.1,421.8
					c1.5,6.1,1.5,6.1,7.4,7.1C824.3,426.8,822.2,424.8,819.1,421.8z M817.8,416c2.5,2.1,4.3,5.4,8.3,5.4
					C824.6,417.9,821.5,416.6,817.8,416z M667.3,153.3c-0.3,0-0.5,0-0.8,0c0,3,0,6,0,8.9c0.3,0,0.5,0,0.8,0
					C667.3,159.2,667.3,156.2,667.3,153.3z M658.3,561.5c-0.4-0.4-0.9-0.8-1.3-1.2c-1.7,2.6-3.4,5.2-5.1,7.9c0.5,0.3,1.1,0.7,1.6,1
					C655.1,566.6,656.7,564.1,658.3,561.5z M521.5,488.9c-0.5-0.4-1.1-0.8-1.6-1.3c-0.6,1.1-1.3,2.1-1.8,3.2c0,0.1,1,0.9,1.1,0.9
					C519.9,490.8,520.7,489.8,521.5,488.9z M755.4,485.1c-0.6,0-1.2,0.1-1.8,0.1c0.2,1.5,0.5,3,0.7,4.4c0.5-0.1,1.3-0.2,1.3-0.4
					C755.6,487.9,755.5,486.5,755.4,485.1z M522.3,473.4c-0.4-0.4-0.9-0.9-1.3-1.3c-1.3,1.3-2.7,2.7-4,4c0.4,0.4,0.9,0.8,1.3,1.3
					C519.6,476.1,521,474.7,522.3,473.4z M504.5,485.2c3.7,1.4,4.7,0.3,4.3-3.7C507,483,505.9,484,504.5,485.2z M672.6,157.3
					c0.3,0,0.6,0,0.9,0c0-2.1,0-4.2,0-6.3c-0.3,0-0.6,0-0.9,0C672.6,153.1,672.6,155.2,672.6,157.3z"/>
				<path d="M550,254.3c-3.7-3.7-7.5-7.4-11.2-11.1C542.5,246.9,546.2,250.6,550,254.3z"/>
				<path d="M333,743.3c-1,2.3-1.9,4.6-2.9,6.9c-0.2-2.9,0.2-5.5,3-6.8C333.2,743.5,333,743.3,333,743.3z"/>
				<path d="M549.9,52.5c-1.5-1.9-3-3.8-4.5-5.7c0.5-0.3,1-0.6,1.4-0.9c1,2.2,1.9,4.5,2.9,6.7C549.7,52.7,549.9,52.5,549.9,52.5z"/>
				<path d="M556.2,94.9c-1.5-1.4-2.9-2.8-4.4-4.3c0.5-0.3,1-0.7,1.4-1c0.9,1.8,1.9,3.6,2.8,5.4C556,95.1,556.2,94.9,556.2,94.9z"/>
				<path d="M546.7,95c-1.6-1.2-3.1-2.4-4.7-3.6c0.6-0.5,1.2-1,1.8-1.5c0.9,1.7,1.8,3.5,2.7,5.2C546.5,95.2,546.7,95,546.7,95z"/>
				<path d="M708.8,351.6c2.3,0,4.6,0,6.9,0c0,0.2,0,0.3,0,0.5C713.4,352,711.1,351.8,708.8,351.6
					C708.8,351.6,708.8,351.6,708.8,351.6z"/>
				<path d="M1066.3,417.8c-1.2,0-2.4,0-3.6,0c0-0.1,0-0.2,0-0.4c1.2,0,2.4,0,3.6,0C1066.3,417.6,1066.3,417.7,1066.3,417.8z"/>
				<path d="M534.2,138.9c-1.4-1.3-2.9-2.6-4.3-4c2.8,0.1,4.1,1.6,4.1,4.1C534,139,534.2,138.9,534.2,138.9z"/>
				<path d="M835.8,19.7c0.8-1.6,1.7-3.1,2.5-4.7c0.4,0.3,0.8,0.6,1.2,0.9c-1.3,1.2-2.6,2.4-3.9,3.6C835.6,19.6,835.8,19.7,835.8,19.7
					z"/>
				<path d="M11,749.5c-0.5,2.1-0.9,4.2-1.4,6.2c-0.4-0.2-0.9-0.3-1.3-0.5c1-1.9,1.9-3.8,2.9-5.6C11.2,749.6,11,749.5,11,749.5z"/>
			</g>
		</g>
		</svg>